# xmcd
#
# Track frame offsets:
#	150
#	14463
#	26616
#	39099
#	51276
#	62754
#	73266
#	84156
#	95095
#
# Disc length: 1384 seconds
# Revision: 0
# Processed by: cddbd v1.5.2PL0 Copyright (c) Steve Scherf et al.
# Submitted via: dBpowerAMP V12.0
#
DISCID=70056609
DTITLE=Roy Clark - Honky Tonk
DYEAR=1900
DGENRE=
TTITLE0=Honky Tonk
TTITLE1=Overdue Blues Part 7
TTITLE2=Let Me Talk To You
TTITLE3=Worried Mind
TTITLE4=05 Frankie And Johnnie Blues
TTITLE5=I Almost Lost My Mind
TTITLE6=Hold It
TTITLE7=Blues Stay Away From Me
TTITLE8=Spooky Movies
EXTD=
EXTT0=
EXTT1=
EXTT2=
EXTT3=
EXTT4=
EXTT5=
EXTT6=
EXTT7=
EXTT8=
PLAYORDER=
